<svg width="94" height="15" viewBox="0 0 94 15" fill="none" xmlns="http://www.w3.org/2000/svg">
<g clip-path="url(#clip0_933_5850)">
<path d="M7.25672 0.486272C7.53172 -0.162091 8.46832 -0.162091 8.74332 0.486274L10.3663 4.31303C10.4823 4.58637 10.7445 4.77313 11.0454 4.79678L15.2582 5.12799C15.9719 5.18411 16.2614 6.05763 15.7175 6.51446L12.5079 9.2107C12.2786 9.40331 12.1784 9.70552 12.2485 9.99343L13.2291 14.0249C13.3952 14.7079 12.6375 15.2478 12.0264 14.8818L8.41965 12.7214C8.16202 12.5671 7.83802 12.5671 7.5804 12.7214L3.9736 14.8818C3.3625 15.2478 2.60477 14.7079 2.77091 14.0249L3.75155 9.99343C3.82159 9.70552 3.72147 9.40331 3.49221 9.2107L0.28245 6.51446C-0.261375 6.05763 0.0280544 5.18411 0.741835 5.12799L4.9547 4.79678C5.25561 4.77313 5.51774 4.58637 5.63367 4.31303L7.25672 0.486272Z" fill="#2196F3"/>
<path d="M26.8032 0.486272C27.061 -0.162091 27.9391 -0.162091 28.1969 0.486274L29.7184 4.31303C29.8272 4.58637 30.0729 4.77313 30.355 4.79678L34.3045 5.12799C34.9737 5.18411 35.245 6.05763 34.7352 6.51446L31.7261 9.2107C31.5112 9.40331 31.4173 9.70552 31.4829 9.99343L32.4023 14.0249C32.558 14.7079 31.8477 15.2478 31.2748 14.8818L27.8934 12.7214C27.6519 12.5671 27.3481 12.5671 27.1066 12.7214L23.7253 14.8818C23.1523 15.2478 22.442 14.7079 22.5977 14.0249L23.5171 9.99343C23.5827 9.70552 23.4889 9.40331 23.2739 9.2107L20.2648 6.51446C19.755 6.05763 20.0263 5.18411 20.6955 5.12799L24.645 4.79678C24.9271 4.77313 25.1729 4.58637 25.2816 4.31303L26.8032 0.486272Z" fill="#2196F3"/>
<path d="M46.2567 0.486272C46.5317 -0.162091 47.4683 -0.162091 47.7433 0.486274L49.3663 4.31303C49.4823 4.58637 49.7445 4.77313 50.0454 4.79678L54.2582 5.12799C54.9719 5.18411 55.2614 6.05763 54.7175 6.51446L51.5079 9.2107C51.2786 9.40331 51.1784 9.70552 51.2485 9.99343L52.2291 14.0249C52.3952 14.7079 51.6375 15.2478 51.0264 14.8818L47.4196 12.7214C47.162 12.5671 46.838 12.5671 46.5804 12.7214L42.9736 14.8818C42.3625 15.2478 41.6048 14.7079 41.7709 14.0249L42.7515 9.99343C42.8216 9.70552 42.7215 9.40331 42.4922 9.2107L39.2825 6.51446C38.7386 6.05763 39.0281 5.18411 39.7418 5.12799L43.9547 4.79678C44.2556 4.77313 44.5177 4.58637 44.6337 4.31303L46.2567 0.486272Z" fill="#2196F3"/>
<path d="M65.8032 0.486272C66.061 -0.162091 66.9391 -0.162091 67.1969 0.486274L68.7184 4.31303C68.8272 4.58637 69.0729 4.77313 69.355 4.79678L73.3045 5.12799C73.9737 5.18411 74.245 6.05763 73.7352 6.51446L70.7261 9.2107C70.5112 9.40331 70.4173 9.70552 70.4829 9.99343L71.4023 14.0249C71.558 14.7079 70.8477 15.2478 70.2748 14.8818L66.8934 12.7214C66.6519 12.5671 66.3481 12.5671 66.1066 12.7214L62.7253 14.8818C62.1523 15.2478 61.442 14.7079 61.5977 14.0249L62.5171 9.99343C62.5827 9.70552 62.4889 9.40331 62.2739 9.2107L59.2648 6.51446C58.755 6.05763 59.0263 5.18411 59.6955 5.12799L63.645 4.79678C63.9271 4.77313 64.1729 4.58637 64.2816 4.31303L65.8032 0.486272Z" fill="#2196F3"/>
<path d="M85.2567 0.486272C85.5317 -0.162091 86.4683 -0.162091 86.7433 0.486274L88.3663 4.31303C88.4823 4.58637 88.7445 4.77313 89.0454 4.79678L93.2582 5.12799C93.9719 5.18411 94.2614 6.05763 93.7175 6.51446L90.5079 9.2107C90.2786 9.40331 90.1784 9.70552 90.2485 9.99343L91.2291 14.0249C91.3952 14.7079 90.6375 15.2478 90.0264 14.8818L86.4196 12.7214C86.162 12.5671 85.838 12.5671 85.5804 12.7214L81.9736 14.8818C81.3625 15.2478 80.6048 14.7079 80.7709 14.0249L81.7515 9.99343C81.8216 9.70552 81.7215 9.40331 81.4922 9.2107L78.2825 6.51446C77.7386 6.05763 78.0281 5.18411 78.7418 5.12799L82.9547 4.79678C83.2556 4.77313 83.5177 4.58637 83.6337 4.31303L85.2567 0.486272Z" fill="#2196F3"/>
</g>
<defs>
<clipPath id="clip0_933_5850">
<rect width="94" height="15" fill="white"/>
</clipPath>
</defs>
</svg>
